<svg width="1200" height="1200" viewBox="0 0 1200 1200" fill="none" xmlns="http://www.w3.org/2000/svg">
<g clip-path="url(#clip0_1_27)">
<path d="M1200 0H0V1200H1200V0Z" fill="white"/>
<path d="M633.7 793.4C633.7 773.8 636.967 748.6 643.5 717.8C650.033 687 658.667 654.1 669.4 619.1C638.6 621.433 607.567 624.467 576.3 628.2C545.5 631.933 518.667 634.033 495.8 634.5C474.8 683.5 458 728.767 445.4 770.3C433.267 811.367 423.7 851.5 416.7 890.7C398.967 886.5 384.267 879.033 372.6 868.3C360.933 858.033 350.2 844.967 340.4 829.1C344.133 821.633 348.333 812.067 353 800.4C358.133 788.733 363.967 774.733 370.5 758.4C377.5 741.6 385.2 722.233 393.6 700.3C402.467 677.9 412.5 652 423.7 622.6C408.3 616.067 398.033 606.967 392.9 595.3C395.233 593.433 400.367 591.567 408.3 589.7C416.7 587.367 426.967 585.033 439.1 582.7L448.2 560.3C458 535.1 465.933 513.867 472 496.6C478.533 479.333 483.9 462.533 488.1 446.2C492.767 429.4 496.967 410.967 500.7 390.9C504.9 370.833 509.8 345.4 515.4 314.6C535 318.333 552.733 326.967 568.6 340.5C584.933 354.033 598.933 370.367 610.6 389.5C606.4 395.1 601.267 403.5 595.2 414.7C589.133 425.9 582.367 439.433 574.9 455.3C567.9 470.7 560.2 488.2 551.8 507.8C543.4 526.933 534.3 547.233 524.5 568.7C553.433 564.967 582.6 561.467 612 558.2C641.867 554.933 668.233 552.6 691.1 551.2C699.5 526.933 708.133 503.367 717 480.5C726.333 457.167 735.433 435.933 744.3 416.8C753.167 397.667 761.567 380.867 769.5 366.4C777.9 351.933 785.367 341.2 791.9 334.2C796.567 334.667 802.633 336.533 810.1 339.8C818.033 342.6 825.967 346.1 833.9 350.3C841.833 354.5 849.067 359.167 855.6 364.3C862.133 368.967 866.567 373.4 868.9 377.6C860.5 385.533 852.1 395.8 843.7 408.4C835.3 421 826.9 435.467 818.5 451.8C810.567 468.133 802.633 485.867 794.7 505C786.767 524.133 779.3 543.967 772.3 564.5C781.633 572.9 786.3 583.4 786.3 596C786.3 604.867 784.433 613.033 780.7 620.5C776.5 619.567 772.3 619.1 768.1 619.1C763.9 618.633 759.467 618.167 754.8 617.7C746.867 642.9 739.633 667.867 733.1 692.6C726.567 717.333 720.967 740.9 716.3 763.3C712.1 785.7 708.6 806.233 705.8 824.9C703.467 843.567 702.3 859.2 702.3 871.8C702.3 876.467 702.3 880.2 702.3 883C702.767 885.8 703.233 888.133 703.7 890C693.433 889.533 685.967 887.667 681.3 884.4C676.633 881.6 673.133 878.333 670.8 874.6C668.467 871.333 666.367 867.833 664.5 864.1C662.633 860.833 659.6 858.267 655.4 856.4C652.133 855 649.1 851.733 646.3 846.6C643.5 841.467 641.167 835.633 639.3 829.1C637.433 822.567 636.033 816.033 635.1 809.5C634.167 802.967 633.7 797.6 633.7 793.4Z" fill="black"/>
</g>
<defs>
<clipPath id="clip0_1_27">
<rect width="1200" height="1200" rx="200" fill="white"/>
</clipPath>
</defs>
</svg>
