<svg xmlns="http://www.w3.org/2000/svg" width="270" height="270" fill="none">
    <mask id="a" width="254" height="269" x="8.298" y=".735" fill="#000" maskUnits="userSpaceOnUse">
        <path fill="#fff" d="M8.298.735h254v269h-254z" />
        <path
            d="M53.15 37.779c3.602 3.43 9.249 8.23 12.559 10.68 6.133 4.41 6.133 4.41 3.699 5.977-1.363.882-5.55 4.41-9.443 7.839-3.894 3.43-9.736 9.308-12.85 13.13-3.213 3.919-7.886 10.19-10.418 14.011-3.253 4.912-6.136 8.831-6.133 11.281.008 6.675-.097-23.92 0-33.915 0-16.461.195-18.617 2.24-23.712 1.168-3.038 3.407-6.957 4.964-8.623 1.947-2.057 3.602-2.94 5.841-2.94 2.532 0 4.381 1.275 9.541 6.272Z" />
        <path
            d="M53.15 37.779c3.602 3.43 9.249 8.23 12.559 10.68 6.133 4.41 6.133 4.41 3.699 5.977-1.363.882-5.55 4.41-9.443 7.839-3.894 3.43-9.736 9.308-12.85 13.13-3.213 3.919-7.886 10.19-10.418 14.011-3.253 4.912-6.136 8.831-6.133 11.281.008 6.675-.097-23.92 0-33.915 0-16.461.195-18.617 2.24-23.712 1.168-3.038 3.407-6.957 4.964-8.623 1.947-2.057 3.602-2.94 5.841-2.94 2.532 0 4.381 1.275 9.541 6.272ZM154.397 13.283c2.726 1.372 7.107 4.801 9.541 7.545 2.531 2.841 7.009 8.72 9.832 13.227 2.921 4.41 7.886 13.522 11.001 20.087 3.116 6.565 7.789 17.931 10.514 25.182 2.629 7.25 6.912 20.087 9.444 28.611 4.478 14.894 4.77 15.482 9.638 20.185 2.725 2.743 11.487 9.994 19.47 16.265 7.983 6.173 15.285 12.542 16.258 14.012 1.071 1.47 1.85 4.017 1.85 5.487 0 1.47-.584 3.919-1.363 5.487-.779 1.47-3.408 4.507-5.744 6.663-2.434 2.254-6.62 5.193-9.346 6.565-2.726 1.47-7.691 3.233-11.001 3.919-3.407.784-9.832 1.666-14.408 2.058-4.576.294-9.735.784-11.488 1.078-3.212.49-3.212.49-2.628-3.234.389-2.057.876-4.507 1.168-5.487.195-.882 0-1.665-.584-1.665-.487 0-1.85 2.939-3.018 6.564-1.266 3.724-3.699 9.015-5.549 11.856-1.85 2.94-6.133 11.073-9.541 18.127-3.407 7.153-7.496 16.756-9.151 21.459-1.557 4.703-3.797 10.19-4.868 12.248-.973 2.058-3.212 4.997-4.964 6.663-2.434 2.351-3.895 2.939-7.107 2.939-2.726 0-5.549-.881-8.47-2.743-2.434-1.47-7.204-5.095-10.709-8.035-3.602-3.037-11.001-7.741-17.036-10.778-6.328-3.136-14.603-6.369-20.25-7.839-5.257-1.274-13.532-2.939-18.497-3.527-7.594-.98-10.222-1.764-16.94-5.487-4.478-2.352-8.08-3.92-8.08-3.332 0 .588 2.045 2.548 4.478 4.508 2.532 1.861 5.063 3.429 5.647 3.527.584 0-3.894 1.764-9.93 3.821-6.036 2.156-12.948 4.116-15.284 4.508-3.797.489-4.576.294-6.718-2.058-1.363-1.47-3.407-5.193-4.575-8.231-1.169-3.037-2.824-9.504-3.797-14.305-1.071-4.9-2.337-13.13-2.823-18.323-.584-5.292-1.071-14.6-1.071-20.773 0-6.663.779-15.775 1.947-22.634 1.07-6.271 3.31-15.482 4.965-20.479 1.557-4.899 4.965-12.64 7.399-17.245 2.433-4.605 6.23-10.974 8.372-14.208 2.142-3.233 6.62-9.21 10.027-13.228 3.31-4.017 8.373-9.602 11.293-12.346 2.823-2.743 7.789-7.152 11.001-9.7 3.213-2.645 9.346-6.369 13.63-8.426 4.283-1.96 11.974-4.998 17.036-6.663 5.063-1.666 13.338-3.92 18.4-4.998 5.062-1.175 11.293-2.94 13.922-4.115 2.628-1.078 5.646-3.135 6.62-4.507 1.07-1.274 1.947-3.332 1.947-4.507 0-1.176-.487-2.646-1.169-3.332-.778-.784-.778-1.176-.097-1.176.584 0 2.142.882 3.602 2.058 1.363 1.078 2.531 1.47 2.531.882s-1.071-2.156-2.336-3.43c-1.266-1.273-3.602-2.645-5.063-3.037-1.46-.392-3.991-.196-5.451.392-2.726.98-2.824.98-2.531-1.568.194-2.058 1.362-3.135 4.672-4.9 2.337-1.175 5.647-2.155 7.302-2.155 1.655 0 5.257 1.176 8.08 2.548Z" />
    </mask>
    <path fill="#fffd55"
        d="M53.15 37.779c3.602 3.43 9.249 8.23 12.559 10.68 6.133 4.41 6.133 4.41 3.699 5.977-1.363.882-5.55 4.41-9.443 7.839-3.894 3.43-9.736 9.308-12.85 13.13-3.213 3.919-7.886 10.19-10.418 14.011-3.253 4.912-6.136 8.831-6.133 11.281.008 6.675-.097-23.92 0-33.915 0-16.461.195-18.617 2.24-23.712 1.168-3.038 3.407-6.957 4.964-8.623 1.947-2.057 3.602-2.94 5.841-2.94 2.532 0 4.381 1.275 9.541 6.272Z" />
    <path fill="#fffd55"
        d="M53.15 37.779c3.602 3.43 9.249 8.23 12.559 10.68 6.133 4.41 6.133 4.41 3.699 5.977-1.363.882-5.55 4.41-9.443 7.839-3.894 3.43-9.736 9.308-12.85 13.13-3.213 3.919-7.886 10.19-10.418 14.011-3.253 4.912-6.136 8.831-6.133 11.281.008 6.675-.097-23.92 0-33.915 0-16.461.195-18.617 2.24-23.712 1.168-3.038 3.407-6.957 4.964-8.623 1.947-2.057 3.602-2.94 5.841-2.94 2.532 0 4.381 1.275 9.541 6.272ZM154.397 13.283c2.726 1.372 7.107 4.801 9.541 7.545 2.531 2.841 7.009 8.72 9.832 13.227 2.921 4.41 7.886 13.522 11.001 20.087 3.116 6.565 7.789 17.931 10.514 25.182 2.629 7.25 6.912 20.087 9.444 28.611 4.478 14.894 4.77 15.482 9.638 20.185 2.725 2.743 11.487 9.994 19.47 16.265 7.983 6.173 15.285 12.542 16.258 14.012 1.071 1.47 1.85 4.017 1.85 5.487 0 1.47-.584 3.919-1.363 5.487-.779 1.47-3.408 4.507-5.744 6.663-2.434 2.254-6.62 5.193-9.346 6.565-2.726 1.47-7.691 3.233-11.001 3.919-3.407.784-9.832 1.666-14.408 2.058-4.576.294-9.735.784-11.488 1.078-3.212.49-3.212.49-2.628-3.234.389-2.057.876-4.507 1.168-5.487.195-.882 0-1.665-.584-1.665-.487 0-1.85 2.939-3.018 6.564-1.266 3.724-3.699 9.015-5.549 11.856-1.85 2.94-6.133 11.073-9.541 18.127-3.407 7.153-7.496 16.756-9.151 21.459-1.557 4.703-3.797 10.19-4.868 12.248-.973 2.058-3.212 4.997-4.964 6.663-2.434 2.351-3.895 2.939-7.107 2.939-2.726 0-5.549-.881-8.47-2.743-2.434-1.47-7.204-5.095-10.709-8.035-3.602-3.037-11.001-7.741-17.036-10.778-6.328-3.136-14.603-6.369-20.25-7.839-5.257-1.274-13.532-2.939-18.497-3.527-7.594-.98-10.222-1.764-16.94-5.487-4.478-2.352-8.08-3.92-8.08-3.332 0 .588 2.045 2.548 4.478 4.508 2.532 1.861 5.063 3.429 5.647 3.527.584 0-3.894 1.764-9.93 3.821-6.036 2.156-12.948 4.116-15.284 4.508-3.797.489-4.576.294-6.718-2.058-1.363-1.47-3.407-5.193-4.575-8.231-1.169-3.037-2.824-9.504-3.797-14.305-1.071-4.9-2.337-13.13-2.823-18.323-.584-5.292-1.071-14.6-1.071-20.773 0-6.663.779-15.775 1.947-22.634 1.07-6.271 3.31-15.482 4.965-20.479 1.557-4.899 4.965-12.64 7.399-17.245 2.433-4.605 6.23-10.974 8.372-14.208 2.142-3.233 6.62-9.21 10.027-13.228 3.31-4.017 8.373-9.602 11.293-12.346 2.823-2.743 7.789-7.152 11.001-9.7 3.213-2.645 9.346-6.369 13.63-8.426 4.283-1.96 11.974-4.998 17.036-6.663 5.063-1.666 13.338-3.92 18.4-4.998 5.062-1.175 11.293-2.94 13.922-4.115 2.628-1.078 5.646-3.135 6.62-4.507 1.07-1.274 1.947-3.332 1.947-4.507 0-1.176-.487-2.646-1.169-3.332-.778-.784-.778-1.176-.097-1.176.584 0 2.142.882 3.602 2.058 1.363 1.078 2.531 1.47 2.531.882s-1.071-2.156-2.336-3.43c-1.266-1.273-3.602-2.645-5.063-3.037-1.46-.392-3.991-.196-5.451.392-2.726.98-2.824.98-2.531-1.568.194-2.058 1.362-3.135 4.672-4.9 2.337-1.175 5.647-2.155 7.302-2.155 1.655 0 5.257 1.176 8.08 2.548Z" />
    <path stroke="#01050E" stroke-width="20"
        d="M53.15 37.779c3.602 3.43 9.249 8.23 12.559 10.68 6.133 4.41 6.133 4.41 3.699 5.977-1.363.882-5.55 4.41-9.443 7.839-3.894 3.43-9.736 9.308-12.85 13.13-3.213 3.919-7.886 10.19-10.418 14.011-3.253 4.912-6.136 8.831-6.133 11.281.008 6.675-.097-23.92 0-33.915 0-16.461.195-18.617 2.24-23.712 1.168-3.038 3.407-6.957 4.964-8.623 1.947-2.057 3.602-2.94 5.841-2.94 2.532 0 4.381 1.275 9.541 6.272Z"
        mask="url(#a)" />
    <path stroke="#01050E" stroke-width="20"
        d="M53.15 37.779c3.602 3.43 9.249 8.23 12.559 10.68 6.133 4.41 6.133 4.41 3.699 5.977-1.363.882-5.55 4.41-9.443 7.839-3.894 3.43-9.736 9.308-12.85 13.13-3.213 3.919-7.886 10.19-10.418 14.011-3.253 4.912-6.136 8.831-6.133 11.281.008 6.675-.097-23.92 0-33.915 0-16.461.195-18.617 2.24-23.712 1.168-3.038 3.407-6.957 4.964-8.623 1.947-2.057 3.602-2.94 5.841-2.94 2.532 0 4.381 1.275 9.541 6.272ZM154.397 13.283c2.726 1.372 7.107 4.801 9.541 7.545 2.531 2.841 7.009 8.72 9.832 13.227 2.921 4.41 7.886 13.522 11.001 20.087 3.116 6.565 7.789 17.931 10.514 25.182 2.629 7.25 6.912 20.087 9.444 28.611 4.478 14.894 4.77 15.482 9.638 20.185 2.725 2.743 11.487 9.994 19.47 16.265 7.983 6.173 15.285 12.542 16.258 14.012 1.071 1.47 1.85 4.017 1.85 5.487 0 1.47-.584 3.919-1.363 5.487-.779 1.47-3.408 4.507-5.744 6.663-2.434 2.254-6.62 5.193-9.346 6.565-2.726 1.47-7.691 3.233-11.001 3.919-3.407.784-9.832 1.666-14.408 2.058-4.576.294-9.735.784-11.488 1.078-3.212.49-3.212.49-2.628-3.234.389-2.057.876-4.507 1.168-5.487.195-.882 0-1.665-.584-1.665-.487 0-1.85 2.939-3.018 6.564-1.266 3.724-3.699 9.015-5.549 11.856-1.85 2.94-6.133 11.073-9.541 18.127-3.407 7.153-7.496 16.756-9.151 21.459-1.557 4.703-3.797 10.19-4.868 12.248-.973 2.058-3.212 4.997-4.964 6.663-2.434 2.351-3.895 2.939-7.107 2.939-2.726 0-5.549-.881-8.47-2.743-2.434-1.47-7.204-5.095-10.709-8.035-3.602-3.037-11.001-7.741-17.036-10.778-6.328-3.136-14.603-6.369-20.25-7.839-5.257-1.274-13.532-2.939-18.497-3.527-7.594-.98-10.222-1.764-16.94-5.487-4.478-2.352-8.08-3.92-8.08-3.332 0 .588 2.045 2.548 4.478 4.508 2.532 1.861 5.063 3.429 5.647 3.527.584 0-3.894 1.764-9.93 3.821-6.036 2.156-12.948 4.116-15.284 4.508-3.797.489-4.576.294-6.718-2.058-1.363-1.47-3.407-5.193-4.575-8.231-1.169-3.037-2.824-9.504-3.797-14.305-1.071-4.9-2.337-13.13-2.823-18.323-.584-5.292-1.071-14.6-1.071-20.773 0-6.663.779-15.775 1.947-22.634 1.07-6.271 3.31-15.482 4.965-20.479 1.557-4.899 4.965-12.64 7.399-17.245 2.433-4.605 6.23-10.974 8.372-14.208 2.142-3.233 6.62-9.21 10.027-13.228 3.31-4.017 8.373-9.602 11.293-12.346 2.823-2.743 7.789-7.152 11.001-9.7 3.213-2.645 9.346-6.369 13.63-8.426 4.283-1.96 11.974-4.998 17.036-6.663 5.063-1.666 13.338-3.92 18.4-4.998 5.062-1.175 11.293-2.94 13.922-4.115 2.628-1.078 5.646-3.135 6.62-4.507 1.07-1.274 1.947-3.332 1.947-4.507 0-1.176-.487-2.646-1.169-3.332-.778-.784-.778-1.176-.097-1.176.584 0 2.142.882 3.602 2.058 1.363 1.078 2.531 1.47 2.531.882s-1.071-2.156-2.336-3.43c-1.266-1.273-3.602-2.645-5.063-3.037-1.46-.392-3.991-.196-5.451.392-2.726.98-2.824.98-2.531-1.568.194-2.058 1.362-3.135 4.672-4.9 2.337-1.175 5.647-2.155 7.302-2.155 1.655 0 5.257 1.176 8.08 2.548Z"
        mask="url(#a)" />
    <path fill="#000"
        d="M96.764 77.221c-1.655.49-5.062 2.841-7.398 5.291-2.337 2.352-5.939 6.761-7.886 9.7-1.947 3.038-4.186 7.251-4.965 9.505-.779 2.254-1.46 5.291-1.46 6.859 0 1.568.876 3.723 2.044 4.899 1.655 1.666 2.92 1.96 5.744 1.568 2.044-.294 5.646-1.862 8.08-3.528 2.434-1.665 5.939-5.095 7.788-7.74 1.947-2.548 4.673-7.055 6.134-9.995 1.46-3.037 2.628-6.859 2.628-9.112 0-2.45-.681-4.41-1.85-5.585-1.07-.98-2.725-1.96-3.796-2.254-1.071-.294-3.31-.098-5.063.392Zm53.642 28.317c-1.169.49-3.7 2.548-5.744 4.606-1.947 2.057-5.257 6.564-7.302 10.092-2.141 3.527-4.38 8.427-4.965 10.974-1.07 4.017-1.07 5.095.39 8.035 1.168 2.547 2.531 3.723 5.354 4.605 2.921.882 4.673.882 7.204 0 1.85-.588 5.257-2.646 7.399-4.605 2.531-2.156 5.355-6.173 7.496-10.485 1.85-3.919 3.7-9.308 4.089-12.15.487-4.899.39-5.291-2.92-8.622-2.337-2.352-4.284-3.43-6.134-3.332-1.557 0-3.796.392-4.867.882Z" />
</svg>
